<svg width="14" height="10" viewBox="0 0 14 10" fill="none" xmlns="http://www.w3.org/2000/svg">
<path fill-rule="evenodd" clip-rule="evenodd" d="M14 4.99967C14 4.72352 13.7761 4.49967 13.5 4.49967H1.70699L4.85399 1.35367C4.98047 1.22719 5.02986 1.04286 4.98357 0.870093C4.93727 0.697329 4.80233 0.562385 4.62957 0.516093C4.4568 0.469801 4.27247 0.519194 4.14599 0.645666L0.145994 4.64567C0.0519518 4.73947 -0.000900269 4.86684 -0.000900269 4.99967C-0.000900269 5.13249 0.0519518 5.25986 0.145994 5.35367L4.14599 9.35367C4.27247 9.48014 4.4568 9.52953 4.62957 9.48324C4.80233 9.43695 4.93727 9.302 4.98357 9.12924C5.02986 8.95648 4.98047 8.77214 4.85399 8.64567L1.70699 5.49967H13.5C13.7761 5.49967 14 5.27581 14 4.99967Z" fill="white"/>
</svg>
